<?xml version="1.0" encoding="utf-8"?>
<!-- Generator: Adobe Illustrator 16.2.1, SVG Export Plug-In . SVG Version: 6.00 Build 0)  -->
<!DOCTYPE svg PUBLIC "-//W3C//DTD SVG 1.1//EN" "http://www.w3.org/Graphics/SVG/1.1/DTD/svg11.dtd">
<svg version="1.1" id="Layer_1" xmlns="http://www.w3.org/2000/svg" xmlns:xlink="http://www.w3.org/1999/xlink" x="0px" y="0px"
	 width="14px" height="17px" viewBox="0 0 14 17" enable-background="new 0 0 14 17" xml:space="preserve">
<path fill="#FFFFFF" d="M8.968,0.586C8.516,0.815,8.143,1.104,7.85,1.452c-0.588,0.686-0.883,1.42-0.883,2.204
	c0,0.109,0.006,0.212,0.018,0.311C7.898,4.043,8.704,3.662,9.4,2.824c0.577-0.708,0.865-1.47,0.865-2.286
	c0-0.109-0.005-0.218-0.016-0.327C9.848,0.233,9.42,0.358,8.968,0.586z M12.553,11.446c-0.719-0.687-1.084-1.546-1.094-2.58
	c-0.012-1.329,0.576-2.363,1.764-3.103c-0.665-0.969-1.661-1.508-2.989-1.617C9.744,4.103,9.145,4.212,8.438,4.473
	C7.686,4.756,7.245,4.897,7.114,4.897c-0.174,0-0.571-0.12-1.192-0.359C5.302,4.299,4.801,4.179,4.42,4.179
	C3.723,4.19,3.075,4.378,2.477,4.743S1.399,5.605,1.04,6.237c-0.458,0.784-0.686,1.72-0.686,2.809c0,0.946,0.169,1.927,0.506,2.939
	c0.316,0.936,0.719,1.758,1.208,2.466c0.458,0.664,0.838,1.132,1.143,1.404c0.479,0.457,0.958,0.675,1.437,0.652
	c0.316-0.011,0.729-0.122,1.241-0.334c0.512-0.213,0.991-0.318,1.437-0.318c0.426,0,0.891,0.105,1.396,0.318
	c0.507,0.212,0.939,0.318,1.299,0.318c0.5-0.011,0.969-0.224,1.404-0.637c0.283-0.251,0.647-0.702,1.094-1.355
	c0.326-0.479,0.609-1.002,0.85-1.568c0.098-0.239,0.189-0.489,0.277-0.751C13.244,12.007,12.879,11.762,12.553,11.446L12.553,11.446
	z"/>
</svg>
