<?xml version="1.0" encoding="utf-8"?>
<!-- Generator: Adobe Illustrator 16.2.1, SVG Export Plug-In . SVG Version: 6.00 Build 0)  -->
<!DOCTYPE svg PUBLIC "-//W3C//DTD SVG 1.1//EN" "http://www.w3.org/Graphics/SVG/1.1/DTD/svg11.dtd">
<svg version="1.1" id="Layer_1" xmlns="http://www.w3.org/2000/svg" xmlns:xlink="http://www.w3.org/1999/xlink" x="0px" y="0px"
	 width="27px" height="17px" viewBox="0 0 27 17" enable-background="new 0 0 27 17" xml:space="preserve">
<g>
	<g>
		<path fill-rule="evenodd" clip-rule="evenodd" fill="#FFFFFF" d="M23.442,4.6c-0.651,0-1.18,0.536-1.18,1.197
			c0,0.662,0.528,1.197,1.18,1.197s1.18-0.535,1.18-1.197C24.622,5.136,24.094,4.6,23.442,4.6z M23.442,2.188
			c-1.938,0-3.505,1.571-3.551,3.523l-2.513,3.592c-0.066-0.004-0.129-0.02-0.196-0.02c-0.574,0-1.104,0.184-1.542,0.494
			L5.533,5.448C5.356,4.062,4.2,2.986,2.784,2.986c-1.539,0-2.786,1.265-2.786,2.825c0,1.561,1.248,2.825,2.786,2.825
			c0.51,0,0.982-0.148,1.393-0.392l10.397,4.453c0.298,1.184,1.348,2.062,2.608,2.062c1.49,0,2.7-1.227,2.7-2.738
			c0-0.035-0.009-0.068-0.011-0.104l3.446-2.523c0.042,0.002,0.082,0.014,0.124,0.014c1.966,0,3.56-1.617,3.56-3.611
			C27.002,3.804,25.408,2.188,23.442,2.188z M3.541,4.595c-0.794-0.34-1.705,0.026-2.035,0.817C1.176,6.204,1.553,7.121,2.347,7.46
			l0.958,0.41C3.112,7.933,2.911,7.976,2.698,7.976c-1.119,0-2.026-0.92-2.026-2.054c0-1.134,0.907-2.054,2.026-2.054
			c0.792,0,1.471,0.466,1.804,1.138L3.541,4.595z M17.183,14.074c-0.738,0-1.377-0.404-1.731-1.002l0.923,0.396
			c0.794,0.34,1.705-0.025,2.034-0.816c0.331-0.793-0.047-1.709-0.84-2.051l-1.135-0.484c0.232-0.096,0.484-0.15,0.749-0.15
			c1.117,0,2.024,0.922,2.024,2.055S18.3,14.074,17.183,14.074z M23.442,7.804c-1.093,0-1.977-0.898-1.977-2.005
			c0-1.107,0.884-2.005,1.977-2.005c1.092,0,1.978,0.898,1.978,2.005C25.42,6.906,24.534,7.804,23.442,7.804z"/>
	</g>
</g>
</svg>
