<?xml version="1.0" encoding="utf-8"?>
<!-- Generator: Adobe Illustrator 16.0.0, SVG Export Plug-In . SVG Version: 6.00 Build 0)  -->
<!DOCTYPE svg PUBLIC "-//W3C//DTD SVG 1.1//EN" "http://www.w3.org/Graphics/SVG/1.1/DTD/svg11.dtd">
<svg version="1.1" id="f" xmlns="http://www.w3.org/2000/svg" xmlns:xlink="http://www.w3.org/1999/xlink" x="0px" y="0px"
	 width="26px" height="26px" viewBox="0 0 26 26" enable-background="new 0 0 26 26" xml:space="preserve">
<g id="f_1_">
	<g opacity="0.2">
		<path d="M16.998,6.012H14.33c0,0-3.33-0.416-3.33,3.407C11,10.236,11,11,11,11H9l0.004,2.992H11V22h3.02v-8.008h1.981L16.99,11
			h-2.981v-0.97c0,0-0.173-1.035,1.005-1.035h1.981L16.998,6.012z"/>
	</g>
	<g>
		<path fill="#FFFFFF" d="M16.998,5.012H14.33c0,0-3.33-0.416-3.33,3.407C11,9.236,11,10,11,10H9l0.004,2.992H11V21h3.02v-8.008
			h1.981L16.99,10h-2.981V9.03c0,0-0.173-1.035,1.005-1.035h1.981L16.998,5.012z"/>
	</g>
</g>
</svg>
