<?xml version="1.0" encoding="utf-8"?>
<!-- Generator: Adobe Illustrator 16.0.0, SVG Export Plug-In . SVG Version: 6.00 Build 0)  -->
<!DOCTYPE svg PUBLIC "-//W3C//DTD SVG 1.1//EN" "http://www.w3.org/Graphics/SVG/1.1/DTD/svg11.dtd">
<svg version="1.1" id="g_x2B_" xmlns="http://www.w3.org/2000/svg" xmlns:xlink="http://www.w3.org/1999/xlink" x="0px" y="0px"
	 width="26px" height="26px" viewBox="0 0 26 26" enable-background="new 0 0 26 26" xml:space="preserve">
<g id="g_x2B__1_">
	<g opacity="0.2">
		<path d="M13.199,6.953H9.401c-0.504,0-1.048,0.062-1.631,0.184c-0.584,0.124-1.14,0.4-1.668,0.83
			C5.708,8.311,5.414,8.701,5.217,9.138c-0.197,0.436-0.295,0.869-0.295,1.3c0,0.356,0.067,0.709,0.203,1.06s0.332,0.661,0.59,0.931
			c0.258,0.271,0.578,0.488,0.958,0.654c0.381,0.166,0.817,0.249,1.309,0.249c0.098,0,0.196-0.003,0.295-0.009
			c0.098-0.007,0.196-0.017,0.295-0.028c-0.049,0.111-0.092,0.219-0.129,0.323c-0.037,0.104-0.056,0.235-0.056,0.396
			c0,0.282,0.059,0.521,0.175,0.709c0.117,0.19,0.243,0.373,0.378,0.545c-0.209,0.012-0.455,0.03-0.737,0.057
			c-0.282,0.023-0.584,0.066-0.903,0.128c-0.32,0.062-0.642,0.146-0.968,0.249s-0.63,0.24-0.913,0.415
			c-0.541,0.317-0.913,0.69-1.115,1.112C4.102,17.654,4,18.032,4,18.363c0,0.344,0.08,0.674,0.24,0.986
			c0.16,0.313,0.406,0.594,0.737,0.838c0.332,0.246,0.747,0.441,1.244,0.59C6.719,20.926,7.3,21,7.963,21
			c0.786,0,1.484-0.102,2.092-0.305c0.608-0.203,1.115-0.469,1.521-0.795c0.405-0.325,0.712-0.697,0.921-1.116
			c0.209-0.418,0.313-0.843,0.313-1.273c0-0.319-0.043-0.603-0.129-0.849s-0.2-0.469-0.341-0.664
			c-0.141-0.197-0.307-0.383-0.498-0.555c-0.191-0.172-0.384-0.344-0.581-0.519L10.6,14.41c-0.099-0.086-0.203-0.188-0.313-0.305
			c-0.111-0.117-0.166-0.28-0.166-0.489s0.055-0.382,0.166-0.517c0.11-0.137,0.227-0.266,0.35-0.389
			c0.196-0.146,0.387-0.304,0.572-0.471c0.184-0.166,0.35-0.351,0.498-0.554c0.147-0.203,0.264-0.434,0.35-0.692
			c0.086-0.259,0.129-0.561,0.129-0.905c0-0.344-0.049-0.652-0.148-0.923c-0.098-0.271-0.215-0.507-0.35-0.71
			c-0.126-0.189-0.259-0.347-0.396-0.483h1.291L13.199,6.953z M10.167,16.715c0.216,0.165,0.391,0.325,0.525,0.479
			c0.134,0.156,0.234,0.313,0.301,0.474c0.067,0.159,0.101,0.338,0.101,0.532c0,0.482-0.193,0.884-0.579,1.197
			c-0.386,0.313-0.95,0.472-1.691,0.472c-0.834,0-1.496-0.177-1.985-0.524c-0.489-0.352-0.734-0.804-0.734-1.357
			c0-0.278,0.054-0.512,0.163-0.695c0.108-0.186,0.234-0.341,0.378-0.464s0.291-0.22,0.44-0.286s0.265-0.115,0.347-0.146
			c0.165-0.052,0.334-0.096,0.51-0.131c0.175-0.037,0.34-0.063,0.495-0.078c0.154-0.015,0.288-0.023,0.401-0.028
			c0.113-0.007,0.186-0.009,0.216-0.009h0.193c0.046,0,0.1,0.004,0.162,0.017C9.698,16.365,9.951,16.551,10.167,16.715z
			 M10.148,11.346c-0.041,0.214-0.146,0.407-0.319,0.579c-0.122,0.122-0.276,0.224-0.463,0.305c-0.188,0.082-0.377,0.123-0.57,0.123
			c-0.324,0-0.605-0.094-0.843-0.282c-0.238-0.188-0.436-0.42-0.593-0.693c-0.157-0.275-0.273-0.57-0.349-0.885
			c-0.076-0.315-0.114-0.6-0.114-0.854c0-0.204,0.023-0.401,0.068-0.595C7.011,8.851,7.099,8.673,7.231,8.51
			c0.122-0.152,0.278-0.274,0.471-0.366c0.192-0.091,0.39-0.137,0.593-0.137c0.314,0,0.59,0.094,0.828,0.282
			c0.238,0.188,0.438,0.424,0.6,0.709c0.162,0.284,0.284,0.589,0.365,0.915c0.081,0.325,0.122,0.625,0.122,0.9
			C10.209,10.955,10.188,11.132,10.148,11.346z M20.004,13.009V10.01h-2v2.999h-3v2h3v3.001h2v-3.001h3v-2H20.004z"/>
	</g>
	<g>
		<g>
			<path fill="#FFFFFF" d="M13.199,5.953H9.401c-0.504,0-1.048,0.062-1.631,0.184c-0.584,0.124-1.14,0.4-1.668,0.83
				C5.708,7.311,5.413,7.701,5.217,8.138c-0.197,0.436-0.295,0.869-0.295,1.3c0,0.356,0.067,0.709,0.203,1.06
				s0.332,0.661,0.59,0.931c0.258,0.271,0.578,0.488,0.958,0.654c0.381,0.166,0.817,0.249,1.309,0.249
				c0.098,0,0.196-0.002,0.295-0.009c0.098-0.006,0.196-0.016,0.295-0.028c-0.049,0.111-0.092,0.219-0.129,0.323
				c-0.037,0.104-0.056,0.237-0.056,0.397c0,0.281,0.059,0.52,0.175,0.709c0.117,0.188,0.243,0.371,0.378,0.545
				c-0.209,0.012-0.455,0.028-0.737,0.055C7.921,14.35,7.619,14.391,7.3,14.451c-0.32,0.061-0.642,0.145-0.968,0.249
				s-0.63,0.241-0.913,0.415c-0.541,0.318-0.913,0.691-1.115,1.113C4.102,16.654,4,17.032,4,17.363c0,0.344,0.08,0.674,0.24,0.986
				c0.16,0.313,0.406,0.594,0.737,0.838c0.332,0.246,0.747,0.441,1.244,0.59C6.719,19.926,7.3,20,7.963,20
				c0.786,0,1.484-0.102,2.092-0.305c0.608-0.203,1.115-0.469,1.521-0.795c0.405-0.325,0.712-0.697,0.921-1.116
				c0.209-0.418,0.313-0.843,0.313-1.273c0-0.319-0.043-0.603-0.129-0.849s-0.2-0.469-0.341-0.664
				c-0.141-0.197-0.307-0.383-0.498-0.555c-0.191-0.172-0.384-0.344-0.581-0.519L10.6,13.41c-0.099-0.086-0.203-0.188-0.313-0.305
				c-0.111-0.117-0.166-0.28-0.166-0.489s0.055-0.382,0.166-0.517c0.11-0.135,0.227-0.264,0.35-0.388
				c0.196-0.147,0.387-0.304,0.572-0.471c0.184-0.166,0.35-0.351,0.498-0.554c0.147-0.203,0.264-0.434,0.35-0.692
				c0.086-0.259,0.129-0.561,0.129-0.905c0-0.344-0.049-0.652-0.148-0.923c-0.098-0.271-0.215-0.507-0.35-0.71
				c-0.126-0.189-0.259-0.347-0.396-0.483h1.291L13.199,5.953z M10.167,15.715c0.216,0.165,0.391,0.325,0.525,0.479
				c0.134,0.156,0.234,0.313,0.301,0.474c0.067,0.159,0.101,0.338,0.101,0.532c0,0.482-0.193,0.884-0.579,1.197
				c-0.386,0.313-0.95,0.472-1.691,0.472c-0.834,0-1.496-0.177-1.985-0.524c-0.489-0.352-0.734-0.804-0.734-1.357
				c0-0.278,0.054-0.512,0.163-0.695c0.108-0.186,0.234-0.341,0.378-0.464s0.291-0.22,0.44-0.286s0.265-0.115,0.347-0.146
				c0.165-0.052,0.334-0.096,0.51-0.131c0.175-0.037,0.34-0.063,0.495-0.078c0.154-0.015,0.288-0.023,0.401-0.028
				c0.113-0.007,0.186-0.009,0.216-0.009h0.193c0.046,0,0.1,0.004,0.162,0.017C9.698,15.365,9.951,15.551,10.167,15.715z
				 M10.148,10.346c-0.041,0.214-0.146,0.407-0.319,0.579c-0.122,0.122-0.276,0.224-0.463,0.305
				c-0.188,0.082-0.377,0.123-0.57,0.123c-0.324,0-0.605-0.094-0.843-0.282c-0.238-0.188-0.436-0.42-0.593-0.693
				c-0.157-0.275-0.273-0.57-0.349-0.885c-0.076-0.315-0.114-0.6-0.114-0.854c0-0.204,0.023-0.401,0.068-0.595
				C7.011,7.851,7.099,7.673,7.231,7.51c0.122-0.152,0.278-0.274,0.471-0.366c0.192-0.091,0.39-0.137,0.593-0.137
				c0.314,0,0.59,0.094,0.828,0.282c0.238,0.188,0.438,0.424,0.6,0.709c0.162,0.284,0.284,0.589,0.365,0.915
				c0.081,0.325,0.122,0.625,0.122,0.9C10.209,9.955,10.188,10.132,10.148,10.346z M20.004,12.009V9.01h-2v2.999h-3v2h3v3.001h2
				v-3.001h3v-2H20.004z"/>
		</g>
	</g>
</g>
</svg>
