<?xml version="1.0" encoding="utf-8"?>
<!-- Generator: Adobe Illustrator 16.0.0, SVG Export Plug-In . SVG Version: 6.00 Build 0)  -->
<!DOCTYPE svg PUBLIC "-//W3C//DTD SVG 1.1//EN" "http://www.w3.org/Graphics/SVG/1.1/DTD/svg11.dtd">
<svg version="1.1" id="Twitter_bird" xmlns="http://www.w3.org/2000/svg" xmlns:xlink="http://www.w3.org/1999/xlink" x="0px"
	 y="0px" width="26px" height="26px" viewBox="0 0 26 26" enable-background="new 0 0 26 26" xml:space="preserve">
<g id="Twitter_bird_1_">
	<g opacity="0.2">
		<path d="M21.641,8.413c-0.594,0.264-1.231,0.442-1.901,0.522c0.684-0.41,1.209-1.06,1.456-1.833
			c-0.641,0.38-1.35,0.656-2.104,0.805c-0.604-0.645-1.465-1.047-2.418-1.047c-1.831,0-3.314,1.484-3.314,3.314
			c0,0.259,0.029,0.513,0.086,0.755c-2.755-0.138-5.197-1.458-6.832-3.463c-0.286,0.49-0.449,1.059-0.449,1.667
			c0,1.149,0.585,2.164,1.475,2.758c-0.543-0.017-1.054-0.166-1.501-0.414c0,0.014,0,0.027,0,0.042c0,1.606,1.143,2.945,2.659,3.25
			c-0.278,0.076-0.571,0.114-0.873,0.114c-0.214,0-0.421-0.021-0.624-0.059c0.421,1.315,1.646,2.274,3.096,2.301
			c-1.134,0.89-2.563,1.42-4.116,1.42c-0.268,0-0.531-0.017-0.791-0.047c1.467,0.938,3.209,1.487,5.081,1.487
			c6.097,0,9.43-5.049,9.43-9.428c0-0.144-0.003-0.287-0.009-0.428C20.635,9.661,21.197,9.078,21.641,8.413z"/>
	</g>
	<g>
		<path fill="#FFFFFF" d="M21.641,7.413c-0.594,0.264-1.231,0.442-1.901,0.522c0.684-0.41,1.209-1.06,1.456-1.833
			c-0.641,0.38-1.35,0.656-2.104,0.805c-0.604-0.645-1.465-1.047-2.418-1.047c-1.831,0-3.314,1.484-3.314,3.314
			c0,0.259,0.029,0.513,0.086,0.755C10.688,9.791,8.246,8.47,6.612,6.465c-0.286,0.49-0.449,1.059-0.449,1.667
			c0,1.149,0.585,2.164,1.475,2.758c-0.543-0.017-1.054-0.166-1.501-0.414c0,0.014,0,0.027,0,0.042c0,1.606,1.143,2.945,2.659,3.25
			c-0.278,0.076-0.571,0.115-0.873,0.115c-0.214,0-0.421-0.021-0.624-0.059c0.421,1.316,1.646,2.275,3.096,2.301
			c-1.134,0.889-2.563,1.42-4.116,1.42c-0.268,0-0.531-0.016-0.791-0.047c1.467,0.939,3.209,1.488,5.081,1.488
			c6.097,0,9.43-5.049,9.43-9.429c0-0.144-0.003-0.287-0.009-0.428C20.635,8.661,21.197,8.078,21.641,7.413z"/>
	</g>
</g>
</svg>
