<?xml version="1.0" encoding="utf-8"?>
<!-- Generator: Adobe Illustrator 17.0.2, SVG Export Plug-In . SVG Version: 6.00 Build 0)  -->
<!DOCTYPE svg PUBLIC "-//W3C//DTD SVG 1.1//EN" "http://www.w3.org/Graphics/SVG/1.1/DTD/svg11.dtd">
<svg version="1.1" id="Layer_1" xmlns:sketch="http://www.bohemiancoding.com/sketch/ns"
	 xmlns="http://www.w3.org/2000/svg" xmlns:xlink="http://www.w3.org/1999/xlink" x="0px" y="0px" width="363.432px"
	 height="257.704px" viewBox="101.75 91.75 363.432 257.704" enable-background="new 101.75 91.75 363.432 257.704"
	 xml:space="preserve">
<path fill="#FFC033" d="M421.106,124.157c-7.716-6.135-13.899-7.134-21.031-6.969c-20.577,0.46-31.299,6.586-36.469,13.75
	c-9.495,13.159-8.961,31.032-9.969,48.469c-0.182,3.153-0.488,6.167-0.906,9.031c-2.601-7.025-6.473-6.49-10.562-4.438
	c-4.999,3.007-9.89,24.123,0.125,30.781c-0.61,0.736-1.243,1.443-1.906,2.125c-16.617,17.092-31.561,24.054-43.938,24.406
	l0.094-0.094c13.244-8.907,29.145-19.791,31.219-40.594c-25.1-0.566-23.047-11.706-29.281-18.875
	c15.361-0.333,22.939,0.603,46.688-4.719c3.361-23.103,6.629-31.776,6.219-47.719c-0.193-7.484-5.603-15.419-11.25-19.562
	C320.493,95.338,302.111,91.957,274.825,92l0,0c-40.457,0.064-54.33,7.241-71.781,14.656l-2.614,1.67
	c-22.662,17.481-20.515,28.029-20.418,31.768c0.392,15.052,11.368,19.196,18.219,26.875c-6.715,2.596-12.245,7.738-6.656,14.781
	c4.883,6.155,12.199,10.389,29.094,6.875c19.951,14.547,22.088,23.836,22.812,32.75c-3.987,0.034-9.317-0.393-13.5,0.125
	c-11.565-6.806-20.688-16.054-35.062-16.188c-10.723-0.099-19.465-0.126-21.562,9.031c-1.723,7.522,9.498,15.944,16.625,20.219
	c-17.713,8.257-29.599,17.422-36.875,26.844c-10.465-0.996-33.346-9.431-41.719-8.844c-6.721,0.472-7.796,10.198-4.219,16.062
	c3.01,4.936,8.048,8.128,14.094,11.125c6.666,3.305,14.937,2.496,22.875,2.344c-0.162,1.321-0.263,2.626-0.281,3.938
	c-9.177-0.472-20.43-1.924-31.969-5.125c-12.608-3.498-14.508,16.611,2.25,23.281c11.214,4.464,23.981,4.942,35.094,2.375
	c10.245,19.064,33.773,34.576,58.219,39.906c41.231,8.99,85.669-4.229,97.281-39.062c2.159-6.476,19.72,6.188,24.875,2.969
	c8.146-5.087,2.419-30.019-19.281-31.781c0.007-1.999-0.081-3.964-0.25-5.875c11.111,2.845,22.126,3.539,39.75,1.312
	c20.824-2.631,43.769-10.001,50.5-18.875c-14.728-0.829-20.588-6.557-14.531-38.5c2.608,2.654,20.692,18.059,56.594,20.406
	c0,0,6.185-2.24,14.031-14.812c5.611-8.99,13.454-28.06,4.344-41.562c-9.173-13.597-4.029-7.718-13-20.656
	c-8.124-11.718-11.716-23.045-25.031-34.5L421.106,124.157z"/>
<title>Slice 1</title>
<description>Created with Sketch (http://www.bohemiancoding.com/sketch)</description>
<g id="Page-1" sketch:type="MSPage">
	<path id="path24" sketch:type="MSShapeGroup" fill="#C12D0B" stroke="#979797" stroke-width="0.5" d="M235.925,224
		c0.488,0.061,0.191,1.547-0.875,3.719c2.019,0.858,4.093,1.765,5.719,2.844c2.391-3.481,3.447-4.386,3.469-4.375L235.925,224
		L235.925,224z M231.831,232.75c-2.43,3.144-5.879,6.571-10.5,9.25c1.647,4.806,3.862,9.004,7.562,13.219
		c0.718-4.095,2.026-8.014,4-11.594c1.681-3.049,3.108-5.466,4.375-7.562C235.458,234.983,233.641,233.881,231.831,232.75
		L231.831,232.75z M189.206,237.625c-2.875,0.866-5.622,2.028-8.25,3.375c-2.593,7.121-8.392,43.283,9.156,69.031
		c21.599,31.691,56.042,33.461,73.625,30.812c7.941-2.473,13.816-6.138,19.594-10.969c-11.266,2.203-37.504,2.823-59.125-11.5
		c-24.391-16.158-31.07-34.139-32.438-56.938c-0.298-4.974-0.37-10.025,0.25-15.094
		C188.696,244.338,189.408,242.758,189.206,237.625L189.206,237.625z M213.8,245.219c-0.998,0.298-2.025,0.595-3.094,0.812
		c-4.976,1.011-8.026,1.691-10.281,2.031c-0.552,11.036,2.334,31.039,14.406,46.438c13.385,17.073,39.35,24.939,47.344,26.75
		c11.686,2.648,21.35,2.288,29.188,1.219c3.328-3.556,5.766-7.572,7.625-11.812c-9.271,0.063-42.296-0.421-58.875-16.969
		C224.633,278.238,216.769,255.604,213.8,245.219L213.8,245.219z M172.518,246.25c-6.428,4.715-11.502,10.12-14.656,14.188
		c-2.038,10.27-1.249,39.454,8.469,58.031c10.416,9.067,26.136,19.121,45.625,23.719C184.559,324.03,163.436,303.291,172.518,246.25
		L172.518,246.25z M137.706,261.625c-6.334,10.897-4.528,12.782-4.281,17.438l14.25-0.094c0.297-4.634,0.867-10.409,4.531-14.969
		C142.774,263.679,137.706,261.625,137.706,261.625L137.706,261.625z M305.3,269.906c-2.319,11.858-6.007,25.756-18.094,31.812
		c5.4,0.9,10.621,1.193,14.594,0.844C304.803,291.209,304.722,279.155,305.3,269.906L305.3,269.906z M135.737,287.812
		c-2.436,6.466-0.399,13.112,1.75,16.688c1.259,0.305,3.995,1.149,13.75-1.406c-1.377-2.76-3.133-2.34-3.688-14.031L135.737,287.812
		L135.737,287.812z"/>
	<path id="path26" sketch:type="MSShapeGroup" fill="#770101" stroke="#979797" stroke-width="0.5" d="M274.825,92
		c-40.457,0.064-54.33,7.241-71.781,14.656c-1.433-4.709-2.84-10.059-11.219-9.906c-6.452,0.12-10.082,6.009-11.875,9.406
		c-6.407,0.108-7.497,4.403-8.188,6.312c1.916-2.038,3.766-3.929,6.875-3.75c-2.411,8.53,1.161,9.344,3.031,9.719
		c1.676,0.336,8.429-5.068,0.438-11.594c2.161-3.227,4.572-6.452,9.812-6.219c7.338,0.327,7.836,3.505,8.511,7.701
		c-22.662,17.481-20.515,28.029-20.418,31.768c0.392,15.052,11.368,19.196,18.219,26.875c-6.715,2.596-12.245,7.738-6.656,14.781
		c4.883,6.155,12.199,10.389,29.094,6.875c19.951,14.547,22.088,23.836,22.812,32.75c-3.987,0.034-9.317-0.393-13.5,0.125
		c-11.565-6.806-20.688-16.054-35.062-16.188c-10.723-0.099-19.465-0.126-21.562,9.031c-1.723,7.522,9.498,15.944,16.625,20.219
		c-17.713,8.257-29.599,17.422-36.875,26.844c-10.465-0.996-33.346-9.431-41.719-8.844c-6.721,0.472-7.796,10.198-4.219,16.062
		c3.01,4.936,8.048,8.128,14.094,11.125c6.666,3.305,14.937,2.496,22.875,2.344c-0.162,1.321-0.263,2.626-0.281,3.938
		c-9.177-0.472-20.43-1.924-31.969-5.125c-12.608-3.498-14.508,16.611,2.25,23.281c11.214,4.464,23.981,4.942,35.094,2.375
		c10.245,19.064,33.773,34.576,58.219,39.906c41.231,8.99,85.669-4.229,97.281-39.062c2.159-6.476,19.72,6.188,24.875,2.969
		c8.146-5.087,2.419-30.019-19.281-31.781c0.007-1.999-0.081-3.964-0.25-5.875c11.111,2.845,22.126,3.539,39.75,1.312
		c20.824-2.631,43.769-10.001,50.5-18.875c-14.728-0.829-20.588-6.557-14.531-38.5c2.608,2.654,20.692,18.059,56.594,20.406
		c0,0,6.185-2.24,14.031-14.812c5.611-8.99,13.454-28.06,4.344-41.562c-9.173-13.597-4.029-7.718-13-20.656
		c-8.124-11.718-11.716-23.045-25.031-34.5c6.425-10.67,6.135-17.052,2.219-21.438c-3.741-4.189-8.036-4.02-10.188-4.375
		c-2.632-2.831-3.37-4.502-9.25-4.812c-0.339-0.018-0.645-0.018-0.969,0c-4.85,0.264-7.993,4.415-9.969,8.688
		c4.028-4.332,10.282-10.637,17.219-3.5c-3.06,0.255-7.787,7.093-1.281,10.188c5.687,2.706,7.055-6.399,5.312-8.125
		c7.927,1.345,12.753,10.578,5.281,22c-7.716-6.135-13.899-7.134-21.031-6.969c-20.577,0.46-31.299,6.586-36.469,13.75
		c-9.495,13.159-8.961,31.032-9.969,48.469c-0.182,3.153-0.488,6.167-0.906,9.031c-2.601-7.025-6.473-6.49-10.562-4.438
		c-4.999,3.007-9.89,24.123,0.125,30.781c-0.61,0.736-1.243,1.443-1.906,2.125c-16.617,17.092-31.561,24.054-43.938,24.406
		l0.094-0.094c13.244-8.907,29.145-19.791,31.219-40.594c-25.1-0.566-23.047-11.706-29.281-18.875
		c15.361-0.333,22.939,0.603,46.688-4.719c3.361-23.103,6.629-31.776,6.219-47.719c-0.193-7.484-5.603-15.419-11.25-19.562
		C320.493,95.338,302.111,91.957,274.825,92L274.825,92z M270.263,99.188c15.281,0.061,30.603,2.287,44.594,6.312
		c31.836,9.16,32.403,24.449,30.219,40.906c-1.477,11.127-1.791,18.976-2.875,25.875c-11.711,2.578-36.901,6.765-61.688,2.219
		c-37.699-6.915-63.017-25.147-65.719-30.5c0,15.82,27.95,65.039,79.938,67.781c9.716,0.513,14.984,0.252,24.406-3.562
		c-1.275,7.228-13.04,20.702-26.688,27.906c-5.278,2.786-5.831,8.399-6.062,15.438c0.633-3.404,0.925-2.882,1.875-5.25
		c1.608-4.008,3.898,1.691,10.125,0.781c16.008-2.339,44.077-15.948,52.906-37.75c1.815-4.482,0.441-12.731-4.938-11.531
		c-3.379,0.753-1.625,7.04-0.25,7.688c0,0,0.341-3.898,1.312-3.531c0.972,0.367,2.543,1.981,2.219,4.312s-1.688,6.591-4.062,5.188
		c-2.375-1.403-5.459-5.415-5.438-10.812c0.022-5.398,1.304-11.194,5.875-11.375c2.608-0.103,6.419,5.473,9.062,10
		c8.885-32.139,2.413-63.583,24.781-69.312c36.878-9.447,34.684,0.393,44.969,12.312c12.869,14.913,13.74,20.32,19.531,27.75
		c5.761,7.392,13.152,17.868,12.938,27.469c-0.416,18.671-16.219,33.031-16.219,33.031c-25.712,0.353-62.302-21.925-69.625-40.219
		c-5.151-12.87-5.686-26.487-5.719-30.656c-0.355,8.929-4.923,57.646-5,61.75c-0.277,14.243,2.573,19.685,4.656,22.062
		c6.059,6.918,12.76,9.467,18.312,13.594c-18.159,9.53-40.213,18.511-77.094,9.469c-4.768-1.169-7.579,1.938-8.062,7.219
		c3.097-4.32,4.672-3.838,5.375-1.156c-6.47,40.485-40.638,31.831-51.719,28.094c-10.119-3.413-24.297-19.33-23.375-39.469
		c1.114-6.725,0.501-14.415,15.438-31.906c2.17,0.429,3.792,1.579,3.844,2.781c0.105,2.43-1.127,2.191-4.062,2.594
		c2.535,1.755,5.558,1.464,6.375,0.031c2.142-3.756-0.619-17.75-5.656-26.406c-3.298-5.668-6.192-10.65-9.625-14.625
		c-7.218-8.356-14.629-17.436-26.438-18.281c-2.353-0.168-5.184,0.314-4.75,2.438c0.514,2.514,6.342,3.727,4.75,1.688
		c-1.112-1.424,8.655-1.845,9.156,1.375c0.828,5.321-16.957,1.477-19.188-0.875c-9.948-10.489,7.048-9.76,16.031-7.281
		c-3.927-3.326-8.188-6.774-12.969-10.688c-22.832-18.692-16.19-38.42,13.156-51.937c15.59-7.181,33.855-10.631,52.312-10.906
		C268.218,99.204,269.244,99.184,270.263,99.188L270.263,99.188z M412.794,102.063c2.805,2.497,1.101,7.456-2.031,5.562
		C408.789,106.432,408.999,102.67,412.794,102.063L412.794,102.063z M181.45,108.969c1.159-0.128,3.145,6.099,0.594,6.188
		C178.473,114.697,180.527,110.873,181.45,108.969L181.45,108.969z M192.263,212.063c4.397,0.01,9.679,1.056,15.312,3.031
		c7.865,3.361,14.41,7.44,20.438,13.594c1.676,0.002,3.283-0.001,4.906,0c-7.838,14.326-42.333,28.134-42.906,12.25
		c4.273-1.957,9.114-3.936,14.688-5.969c-7.214-3.057-14.072-7.507-18.531-11.812c-5.207-5.027-5.777-7.922-0.75-9.969
		C187.304,212.42,189.624,212.057,192.263,212.063L192.263,212.063z M234.794,228.688c2.644,0.019,5.101,0.078,7.156,0.281
		c-7.986,7.945-15.664,21.369-15.469,31.938c0.485,27.118,16.171,39.749,25.719,42.656c23.774,7.239,46.835,4.948,52.188-26.5
		c0.026,1.909-0.072,4.053-0.25,6.188c-0.367,4.137-0.822,8.323-1.906,12.344c-9.94,28.397-23.586,41.178-66.844,45.875
		c-33.353,3.622-72.936-23.194-81.562-41.781c-3.747,1.785-9.812,2.828-15.781,3.125c-2.462-3.482-3.163-7.598-1.656-12.625
		c5.275,0.67,10.53,1.102,14.938,1c-0.724-4.49-0.436-8.648,0.781-13.375c-6.051,0.386-12.092,0.534-17.812-0.25
		c-1.03-6.928,1.21-10.454,4.062-13.344c5.628,1.452,12.078,2.796,17.75,3.281c1.44-2.368,3.2-4.675,5.312-6.938
		c5.755-6.163,13.091-12.217,26.531-18.625C188.667,259.127,226.814,247.611,234.794,228.688L234.794,228.688z M115.45,258.563
		c0.808-0.055,1.735,0.035,2.812,0.25c5.826,0.706,11.293,2.955,16.906,4.562c-3.169,3.172-4.092,7.051-3.781,13.688
		c-4.824-0.967-10.406-2.41-14.156-5.75C110.675,265.473,109.795,258.948,115.45,258.563L115.45,258.563z M305.845,283.409
		c7.064,0.818,16.038,2.637,20.355,11.997c2.915,6.322,2.031,9.085-6.156,7.469c-3.872-0.764-11.675-3.757-16.454-6.124
		C304.796,290.879,304.429,292.154,305.845,283.409L305.845,283.409z M111.763,286.063c1.301,0.002,3.153,0.279,5.875,0.875
		c4.102,0.898,9.694,1.564,15.156,2.375c-0.48,5.316-0.501,10.392,1.938,13.688c-9.616-0.119-19.537-2.503-24.25-8.031
		c-1.704-1.999-3.26-4.968-2.312-6.719C108.935,286.834,109.594,286.06,111.763,286.063L111.763,286.063z"/>
	<path id="path30" sketch:type="MSShapeGroup" fill="#770101" stroke="#979797" stroke-width="0.5" d="M258.472,147.028
		c-1.993,0.157-3.818,0.983-4.781,2.031c-2.783,3.028-2.975,11.618,6.031,12.688c3.402,0.404,7.296-5.675,6.812-8.281
		C265.578,148.307,261.793,146.766,258.472,147.028L258.472,147.028z M260.003,152.247c1.97-0.082,3.228,1.437,3.344,2.844
		c0.181,2.194-2.322,4.599-5.125,3.375C255.534,157.291,255.415,152.437,260.003,152.247L260.003,152.247z M328.409,153.903
		c-7.141,0.08-9.318,8.431-5.469,12.125c4.946,4.747,11.379,1.802,11.875-4.781C335.14,156.94,332.924,153.852,328.409,153.903
		L328.409,153.903z M328.847,159.028c1.975,0,3.844,1.18,3.844,3.25s-1.743,3.406-3.719,3.406c-1.975,0-3.656-1.149-3.656-3.219
		C325.316,160.396,326.872,159.028,328.847,159.028L328.847,159.028z M283.691,160.278c-1.283-0.059-2.127,0.366-2.156,1
		c-0.07,1.501,8.629,1.955,12.094,11.625c4.549-4.308,12.422-6.423,12.906-7.719c0.503-1.345-8.098-0.937-12.406,4.938
		C291.415,162.81,286.513,160.407,283.691,160.278L283.691,160.278z"/>
	<path id="path32" sketch:type="MSShapeGroup" fill="#770101" stroke="#979797" stroke-width="0.5" d="M391.347,192
		c-3.297,0-6.454,3.355-6.344,6c0.108,2.6,2.159,6.345,5.781,6.438c3.268,0.083,6.947-3.607,6.75-6.406
		C397.331,195.145,395.404,192,391.347,192L391.347,192z M391.847,196.094c3.327-0.273,4.917,4.815-0.375,5.938
		c-1.53,0.325-2.656-1.838-2.656-2.969S389.383,196.296,391.847,196.094L391.847,196.094z M410.972,208.844
		c-0.66,6.065-0.48,5.485,2.281,12.656c2.179-1.898,4.73-5.079,6.406-7.469c-3.737-0.247-3.488,0.672-5.75,2.969
		C412.796,213.706,412.179,209.38,410.972,208.844L410.972,208.844z M438.878,214.062c-5.756,0.413-13.195,8.836-3.406,11.438
		c4.188,1.113,8.876-3.608,8.25-7.031C443.098,215.056,441.13,213.901,438.878,214.062L438.878,214.062z M438.44,218.344
		c4.364-0.015,2.093,4.637-0.719,4.938C432.033,223.889,434.02,218.359,438.44,218.344L438.44,218.344z"/>
</g>
</svg>
