<?xml version="1.0" encoding="utf-8"?>
<!-- Generator: Adobe Illustrator 17.0.0, SVG Export Plug-In . SVG Version: 6.00 Build 0)  -->
<!DOCTYPE svg PUBLIC "-//W3C//DTD SVG 1.1//EN" "http://www.w3.org/Graphics/SVG/1.1/DTD/svg11.dtd">
<svg version="1.1" id="Layer_1" xmlns="http://www.w3.org/2000/svg" xmlns:xlink="http://www.w3.org/1999/xlink" x="0px" y="0px"
	 width="20px" height="20px" viewBox="0 0 20 20" enable-background="new 0 0 20 20" xml:space="preserve">
<g>
	<g>
		<path fill-rule="evenodd" clip-rule="evenodd" fill="#BFBFBF" d="M10,0C4.477,0,0,4.477,0,10c0,5.523,4.477,10,10,10
			c5.523,0,10-4.477,10-10C20,4.477,15.523,0,10,0z M15.873,14.257c-0.451,0.621-0.995,1.165-1.616,1.616L10,11.616l-4.257,4.257
			c-0.621-0.451-1.165-0.995-1.616-1.616L8.384,10L4.126,5.743c0.451-0.621,0.995-1.165,1.616-1.616L10,8.384l4.257-4.257
			c0.621,0.451,1.165,0.995,1.616,1.616L11.616,10L15.873,14.257z"/>
	</g>
</g>
</svg>
