<?xml version="1.0" encoding="utf-8"?>
<!-- Generator: Adobe Illustrator 17.0.0, SVG Export Plug-In . SVG Version: 6.00 Build 0)  -->
<!DOCTYPE svg PUBLIC "-//W3C//DTD SVG 1.1//EN" "http://www.w3.org/Graphics/SVG/1.1/DTD/svg11.dtd">
<svg version="1.1" id="HB" xmlns="http://www.w3.org/2000/svg" xmlns:xlink="http://www.w3.org/1999/xlink" x="0px" y="0px"
	 width="26px" height="26px" viewBox="0 0 26 26" enable-background="new 0 0 26 26" xml:space="preserve">
<g id="HB_1_">
	<g>
		<g>
			<path fill="#FFFFFF" d="M16.789,13.924l-3.891-1.985c-0.45,0.194-2.424,1.965-2.424,3.211s0.665,1.771,0.665,1.771
				c-3.343-1.36,0.526-5.292,1.799-6.636c2.268-2.395,2.416-3.834,2.416-4.906c0-1.07-0.891-1.479-0.891-1.479
				c-0.188-0.079-0.367,0.012-0.078,0.292c0.327,0.315,0.313,0.876,0.313,0.876c0,1.927-2.703,3.208-3.969,3.698
				c-2.219,0.857-6.452,2.123-6.452,6.968C4.277,20.58,7.014,22,11.452,22c4.104,0,6.45-1.498,6.45-4.711
				C17.902,14.391,16.789,13.924,16.789,13.924z M12.574,6.995c-0.563-0.542-0.962-1.187-0.962-1.927c0,0-0.015-0.561,0.313-0.876
				c0.29-0.28,0.108-0.371-0.079-0.292c0,0-0.889,0.408-0.889,1.479c0,0.597,0.045,1.307,0.477,2.232L12.574,6.995z M10.787,7.978
				l-8.601-4.43c0,0-0.734-0.253-1.054,0.394c-0.378,0.76,0.279,1.147,0.279,1.147l7.211,3.713L10.787,7.978z M24.723,15.154
				l-10.328-5.32l-1.121,1.363l10.677,5.499c0,0,0.666,0.129,0.943-0.449C25.209,15.598,24.723,15.154,24.723,15.154z"/>
		</g>
	</g>
</g>
</svg>
