<?xml version="1.0" encoding="utf-8"?>
<!-- Generator: Adobe Illustrator 17.0.0, SVG Export Plug-In . SVG Version: 6.00 Build 0)  -->
<!DOCTYPE svg PUBLIC "-//W3C//DTD SVG 1.1//EN" "http://www.w3.org/Graphics/SVG/1.1/DTD/svg11.dtd">
<svg version="1.1" id="Login" xmlns="http://www.w3.org/2000/svg" xmlns:xlink="http://www.w3.org/1999/xlink" x="0px" y="0px"
	 width="12px" height="12px" viewBox="0 0 12 12" enable-background="new 0 0 12 12" xml:space="preserve">
<g>
	<g>
		<path fill-rule="evenodd" clip-rule="evenodd" fill="#FFFFFF" d="M5.992,0.014C2.683,0.014,0,2.697,0,6.006
			c0,3.31,2.683,5.992,5.992,5.992c3.309,0,5.992-2.683,5.992-5.992C11.984,2.697,9.301,0.014,5.992,0.014z M4.745,10.046
			c-0.383,0-0.648-0.18-0.648-0.584c0-0.51,0.361-1.381,0.436-1.562l0.744-1.871C5.351,5.838,5.256,5.742,5.17,5.742
			c-0.393,0-0.903-0.076-1.094-0.076c-0.075,0-0.045-0.137-0.045-0.201C5,4.954,4.82,5.041,6.138,5.041
			c0.457,0,0.946,0.276,0.563,1.307L5.936,8.42C5.872,8.58,5.755,8.846,5.755,9.015c0,0.074,0.042,0.149,0.127,0.149
			c0.319,0,0.904,0.097,1.052,0.097c0.053,0,0.127,0.064,0.127,0.159C7.062,9.728,5.819,10.046,4.745,10.046z M7.035,3.812
			c-0.502,0-0.832-0.33-0.832-0.832c0-0.538,0.465-0.978,1.003-0.978c0.49,0,0.844,0.33,0.844,0.832
			C8.05,3.396,7.585,3.812,7.035,3.812z"/>
	</g>
</g>
</svg>
