<?xml version="1.0" encoding="utf-8"?>
<!-- Generator: Adobe Illustrator 16.0.0, SVG Export Plug-In . SVG Version: 6.00 Build 0)  -->
<!DOCTYPE svg PUBLIC "-//W3C//DTD SVG 1.1//EN" "http://www.w3.org/Graphics/SVG/1.1/DTD/svg11.dtd">
<svg version="1.1" id="Login" xmlns="http://www.w3.org/2000/svg" xmlns:xlink="http://www.w3.org/1999/xlink" x="0px" y="0px"
	 width="12px" height="12px" viewBox="0 0 12 12" enable-background="new 0 0 12 12" xml:space="preserve">
<g id="Login_1_">
	<g>
		<path fill="#FFFFFF" d="M11.477,11.246c-0.045-0.262-0.447-1.156-0.748-1.453c-0.299-0.295-1.111-0.65-1.652-0.844
			c-0.542-0.191-0.807-0.4-0.807-0.4L8.24,8.471C8.232,8.4,7.984,8.245,7.984,8.245c-0.16-0.08-0.326-0.247-0.451-0.394
			C7.551,7.284,7.546,6.66,7.545,6.499c0.12-0.147,0.313-0.495,0.38-0.984C7.945,5.522,7.973,5.53,8.018,5.53
			c0.104,0,0.271-0.183,0.35-0.452c0.076-0.27,0.016-0.191,0.104-0.392c0.074-0.171,0.125-0.468,0.016-0.635c0,0,0,0,0.002,0
			c-0.01-0.04-0.018-0.081-0.027-0.122c0.004-0.006,0.006-0.011,0.01-0.017C8.52,3.935,8.568,3.958,8.618,3.981h0.026
			c-0.01-0.055-0.019-0.11-0.026-0.165c0.084,0.023,0.168,0.046,0.252,0.07C8.85,3.781,8.83,3.677,8.811,3.573
			c0.037,0,0.051-0.022,0.051-0.114C8.911,3.448,8.96,3.436,9.01,3.425l0.018-0.009c-0.059-0.125-0.115-0.25-0.174-0.374V2.998
			C8.885,3.001,8.917,3.004,8.95,3.007C8.9,2.783,8.85,2.561,8.802,2.337c0.041-0.021,0.081-0.041,0.122-0.061
			C8.844,2.093,8.766,1.91,8.688,1.728c0.029-0.02,0.06-0.041,0.088-0.061C8.63,1.531,8.484,1.395,8.34,1.258
			c0.087-0.032,0.174-0.063,0.262-0.096V1.153c-0.244,0-0.442-0.392-0.67-0.392C7.928,0.756,7.925,0.75,7.922,0.745l0.053-0.026
			C7.716,0.588,7.458,0.457,7.2,0.327C7.191,0.318,7.184,0.31,7.174,0.301c0.016-0.006,0.029-0.012,0.043-0.018
			C6.916,0.197,6.614,0.109,6.313,0.022V0.014c0.063,0-0.354,0.063-0.505,0.04C5.727,0.057,5.78,0.029,5.697,0.033
			C5.54,0.042,5.404,0.075,5.329,0.075l0.009-0.026C5.049,0.13,4.999,0.269,4.877,0.292c0,0-0.337,0.047-0.505,0.069v0.027
			c-0.134,0-0.443,0.104-0.443,0.217C3.792,0.759,3.656,0.913,3.52,1.067c0.032,0.008,0.063,0.017,0.096,0.026
			c-0.087,0.145-0.174,0.29-0.261,0.435C3.386,1.525,3.418,1.522,3.45,1.519C3.275,1.717,3.102,1.914,2.928,2.111
			c-0.021,0.02-0.04,0.041-0.061,0.061C2.892,2.19,2.919,2.207,2.945,2.224c0.047,0.171,0.052,0.26,0.009,0.436
			c0.058-0.006,0.021-0.064,0.078-0.07c0,0.234-0.061,0.503-0.061,0.748c0.021-0.025,0.04-0.052,0.061-0.078
			c0,0.168,0.096,0.415,0.096,0.435c-0.003,0.067-0.006,0.133-0.009,0.2C3.154,3.897,3.188,3.9,3.224,3.903v0.113
			C3.276,4.052,3.328,4.088,3.38,4.123C3.325,4.295,3.377,4.54,3.441,4.686c0.087,0.201,0.025,0.122,0.104,0.392
			C3.624,5.347,3.789,5.53,3.894,5.53c0.028,0,0.041-0.006,0.06-0.01C4.022,6.008,4.213,6.354,4.333,6.5
			C4.331,6.676,4.326,7.383,4.349,7.979C4.245,8.084,4.132,8.188,4.017,8.246c0,0-0.249,0.156-0.256,0.227L3.732,8.549
			c0,0-0.264,0.209-0.806,0.4c-0.54,0.193-1.353,0.549-1.653,0.844c-0.301,0.297-0.703,1.191-0.747,1.453S0.491,12,0.491,12
			l10.999-0.001C11.49,11.999,11.52,11.508,11.477,11.246z"/>
	</g>
</g>
</svg>
