<?xml version="1.0" encoding="utf-8"?>
<!-- Generator: Adobe Illustrator 17.0.0, SVG Export Plug-In . SVG Version: 6.00 Build 0)  -->
<!DOCTYPE svg PUBLIC "-//W3C//DTD SVG 1.1//EN" "http://www.w3.org/Graphics/SVG/1.1/DTD/svg11.dtd">
<svg version="1.1" id="Layer_1" xmlns="http://www.w3.org/2000/svg" xmlns:xlink="http://www.w3.org/1999/xlink" x="0px" y="0px"
	 width="317.605px" height="49.283px" viewBox="0 0 317.605 49.283" enable-background="new 0 0 317.605 49.283"
	 xml:space="preserve">
<path id="e_11_" fill="#CB2729" d="M315.718,40.273c-1.243,1.386-3.278,2.594-6.596,2.594c-3.272,0-4.23-3.749-4.23-3.749
	c6.215-1.011,10.568-5.717,10.568-9.575c0-4.573-2.657-6.525-5.853-6.525c-6.773,0.001-10.765,5.47-10.63,13.008
	c0.309,17.173,10.317,13.99,14.795,10.008c1.957-1.742,3.132-3.398,3.834-4.895L315.718,40.273z M308.293,27.992
	c2.061,0,2.299,1.785,2.299,2.481c0,3.438-6.477,6.396-6.477,6.396C302.834,32.588,304.783,27.992,308.293,27.992z"/>
<path id="o_2_" fill="#CB2729" d="M269.737,23.04c-6.773,0-10.631,5.469-10.631,13.008c0,5.282,1.722,13.153,7.596,13.153
	c7.375,0,12.125-7.308,12.875-13.08C280.439,29.492,276.703,23.04,269.737,23.04z M272.977,36.121
	c-0.263,2.028-1.932,4.595-4.523,4.595c-2.064,0-2.668-2.765-2.668-4.62c0-2.648,1.355-4.569,3.734-4.569
	C271.967,31.526,273.28,33.792,272.977,36.121z"/>
<g id="t_4_">
	<path id="l_extended_18_" fill-rule="evenodd" clip-rule="evenodd" fill="#CB2729" d="M259.982,30.41
		c-0.783,4.2-4.006,9.79-6.894,9.78c-6.777-0.024,3.659-37.674,3.659-37.674h-5.341c0,0-6.641,17.47-6.37,34.012
		c0.16,9.79,2.014,12.674,5.807,12.674c4.629,0,7.274-3.409,8.296-5.333c4.37-8.226,4.004-10.379,4.148-12.385
		C262.619,31.063,260.534,30.728,259.982,30.41z"/>
</g>
<path id="s_tail_2_" fill="#CB2729" d="M218.739,28.076c15.128-7.57,32.015-6.233,39.067-5.169l-0.988,6
	c0,0-27.2-4.868-36.474,1.432"/>
<path id="s_2_" fill="#CB2729" d="M211.958,34.801c-3.094,8.719,2.647,14.468,13.974,14.468c6.116,0,15.471-0.934,15.471-11.471
	c0-5.373-1.996-8.92-10.25-12.969c-8.253-4.049-9.656-7.681-9.656-10.74c0-1.903,0.753-5.807,3.892-7.063
	c2.917-1.167,5.583-0.917,7.847,1.862l3.926-1.112c0,0-1.44-7.247-9.929-7.247c-9.991,0-13.794,6.509-13.794,15.857
	c0,9.227,11.749,16.119,14.617,18.222c5,3.667,1.562,7-1.79,7c-5.21,0-15.335-3.641-5.921-11.271
	c1.923-1.559,1.269-3.536-1.605-2.263C217.851,28.469,213.305,31.006,211.958,34.801z"/>
<path id="e_8_" fill="#CB2729" d="M195.931,40.273c-1.244,1.386-3.279,2.594-6.597,2.594c-3.271,0-3.416-4.046-3.416-4.046
	c6.214-1.011,9.755-5.42,9.755-9.278c0-4.573-2.657-6.525-5.854-6.525c-6.773,0.001-10.766,5.47-10.631,13.008
	c0.308,17.173,10.318,13.99,14.796,10.008c1.956-1.742,3.132-3.398,3.833-4.895L195.931,40.273z M188.506,27.992
	c2.06,0,2.299,1.785,2.299,2.481c0,3.438-6.478,6.396-6.478,6.396C183.046,32.588,184.995,27.992,188.506,27.992z"/>
<path id="l_extended_13_" fill-rule="evenodd" clip-rule="evenodd" fill="#CB2729" d="M187.459,35.063
	c-2.276,1.336-7.54,4.781-10.543,4.77c-7.045-0.025,3.804-39.165,3.804-39.165h-5.91c0,0-6.904,18.162-6.622,35.358
	c0.282,17.197,9.243,13.683,13.811,10.708c8.115-5.283,13.374-13.711,13.524-15.796C194.828,30.501,188.033,35.394,187.459,35.063z"
	/>
<path id="b_5_" fill-rule="evenodd" clip-rule="evenodd" fill="#CB2729" d="M161.338,23.114c-6.774,0-8.724,4.18-8.724,4.18
	c1.455-11.731,5.701-26.53,5.701-26.53h-5.909c0,0-6.904,18.161-6.623,35.357c0.283,17.197,8.869,13.955,13.378,10.008
	c4.51-3.947,8.032-11.135,8.032-16.492C167.193,25.066,164.535,23.114,161.338,23.114z M160.812,34.052
	c-1.361,3.062-3.428,5.877-6.756,5.877c-1.368,0-1.986-1.83-1.986-4.622c0-5.506,4.328-6.946,6.536-6.946
	C161.761,28.361,162.456,30.352,160.812,34.052z"/>
<g id="m_5_">
	<path id="n__x28_curved_x29__18_" fill="#CB2729" d="M152.317,31.514c-0.529,1.496-8.962,12.867-10.435,14.608
		c-1.389,1.64-3.483,3.144-5.482,3.148c-2.858,0.006-2.618-3.638-1.376-13.155l0.073-0.631c0.416-4.288,0.279-7.123-1.308-7.123
		c-2.208,0-6.44,2.787-6.805,8.301l-0.001-8.244c0,0,2.764-5.304,9.538-5.304c3.197,0,5.855,1.903,5.855,6.524
		c0,2.145-0.822,6.476-0.822,6.476c-0.41,3.139-0.489,4.338,0.454,4.338c1.386,0,10.135-11.688,10.309-12.182"/>
	<path id="n_5_" fill-rule="evenodd" clip-rule="evenodd" fill="#CB2729" d="M112.071,36.662c0.365-5.514,4.597-8.301,6.805-8.301
		c2.896,0,0.966,9.442-0.356,19.927c1.145,0,6.503,0,6.503,0c1.063-6.634,2.439-11.859,2.439-18.649
		c0-4.573-2.658-6.524-5.854-6.524c-6.774,0-9.539,5.304-9.539,5.304l0.301-4.377l-7.098,0.003l-2.054,24.244h7.821L112.071,36.662z
		"/>
</g>
<g id="u_13_">
	<path id="u_14_" fill-rule="evenodd" clip-rule="evenodd" fill="#CB2729" d="M94.15,24.045c0,0-1.74,16.739-7.12,16.739
		c-1.48,0-1.836-3.299-1.79-6.883c0.035-2.727,0.296-6.043,0.915-9.861c-0.817-0.001-5.409,0.003-6.764,0.003
		c-0.621,4.25-1.011,7.724-0.939,12.078c0.161,9.839,2.365,12.999,6.044,13.156c2.752,0.118,5.686-1.444,7.601-3.148
		c4.553-4.048,8.45-8.754,8.45-22.084H94.15z"/>
	<path id="n__x28_curved_x29__16_" fill="#CB2729" d="M109.465,28.152c-0.174,0.493-6.044,15.7-9.392,15.7
		c-1.853,0,0.686-17.171,1.002-19.807h-4.62l-1.83,11.804c-1.242,9.517,1.28,13.161,4.138,13.155c2-0.004,4.094-1.507,5.482-3.147
		c1.474-1.741,3.932-9.856,5.277-11.856"/>
</g>
<g id="H_9_">
	<g>
		<path fill-rule="evenodd" clip-rule="evenodd" fill="#CB2729" d="M79.413,24.044c-0.632,3.54-3.557,15.884-10.602,15.884
			c-7.045,0,3.804-38.729,3.804-38.729h-7.327c0,0-3.106,7.985-5.067,18.431h-6.258c0.164-2.148,0.242-4.322,0.207-6.483
			C53.889-4.049,43.885-0.808,39.376,3.14c-4.287,3.752-7.682,10.435-8.006,15.687c0.372,0.092,3.356,0.804,3.356,0.804
			s2.254-10.289,9.3-10.289c7.045,0-3.805,38.947-3.805,38.947h7.327c0,0,3.716-9.669,5.584-21.61h6.023
			c-0.348,3.09-0.541,6.276-0.49,9.444c0.282,17.197,10.286,13.955,14.795,10.008c4.509-3.947,8.031-11.135,8.031-16.492
			C81.101,29.638,79.902,24.478,79.413,24.044z"/>
	</g>
</g>
<path id="e_2_" fill="#CB2729" d="M34.741,33.499c-0.655,0.73-1.727,1.366-3.474,1.366c-1.723,0-1.8-2.131-1.8-2.131
	c3.273-0.533,5.138-2.854,5.138-4.887c0-2.408-1.4-3.437-3.083-3.437c-3.568,0.001-5.67,2.881-5.599,6.851
	c0.163,9.045,5.434,7.369,7.792,5.271c1.031-0.917,1.649-1.79,2.019-2.578L34.741,33.499z M30.83,27.031
	c1.085,0,1.211,0.94,1.211,1.307c0,1.811-3.411,3.369-3.411,3.369C27.955,29.451,28.981,27.031,30.83,27.031z"/>
<path id="h_2_" fill-rule="evenodd" clip-rule="evenodd" fill="#CB2729" d="M28.63,31.706c-2.14,1.344-4.971,3.323-5.246,2.774
	c-0.347-0.695,0.556-3.989,0.556-6.582c0-2.408-1.4-3.436-3.084-3.436c-3.568,0-4.595,2.202-4.595,2.202
	c0.766-6.179,3.002-13.973,3.002-13.973H16.34c0,0-4.201,12.778-4.201,25.03h3.388l0.447-6.837c0-2.9,2.436-3.658,3.443-3.658
	c2.212,0,1.493,4.033,1.493,4.033c-0.654,5.013-0.781,6.929,0.725,6.929c4.286,0,9.98-5.7,11.385-7.101"/>
<g id="t_2_">
	<path id="l_extended_3_" fill-rule="evenodd" clip-rule="evenodd" fill="#CB2729" d="M12.897,27.912
		c-0.429,2.299-2.193,5.36-3.775,5.355c-3.711-0.013,2.004-20.628,2.004-20.628H8.201c0,0-3.636,9.566-3.488,18.623
		c0.088,5.36,1.103,6.939,3.179,6.939c2.535,0,3.983-1.867,4.543-2.92c2.393-4.504,2.192-5.683,2.271-6.781
		C14.34,28.27,13.199,28.087,12.897,27.912z"/>
	<path fill-rule="evenodd" clip-rule="evenodd" fill="#CB2729" d="M11.139,26.547c0.166-1,0.541-3,0.541-3H0v3H11.139z"/>
</g>
<path fill-rule="evenodd" clip-rule="evenodd" fill="#CB2729" d="M301.886,24.396c-0.837-0.72-2.341-1.378-3.975-1.378
	c-6.774,0-9.539,5.304-9.539,5.304l0.301-4.377l-7.098,0.003l-2.054,24.244h7.821l1.032-11.626c0.365-5.514,4.597-8.301,6.805-8.301
	c0.773,0,2.364,0.268,2.864,2.075C298.042,30.339,298.909,26.334,301.886,24.396z"/>
</svg>
